<svg xmlns="http://www.w3.org/2000/svg" width="64" height="64" viewBox="0 0 1083.733 1083.733">
  <defs>
    <clipPath id="a" clipPathUnits="userSpaceOnUse">
      <path d="M0 500h500V0H0Z"/>
    </clipPath>
  </defs>
  <g clip-path="url(#a)" transform="matrix(3.36176 0 0 -3.36176 -298.487 1479.87)">
    <path fill="#b3b3b3" d="m384.72 297.757 4.321 4.323a3.263 3.263 0 0 1-4.614 4.614l-.356-.357-1.388 18.368 4.344 4.344a3.264 3.264 0 0 1-4.615 4.615l-.378-.379-1.643 21.751c11.92 11.244 21.364 20.196 23.5 22.331 8.448 8.449 5.784 21.251 4.484 22.551-1.3 1.3-14.102 3.964-22.55-4.484-2.136-2.136-11.087-11.581-22.333-23.5l-21.75 1.643.378.379a3.263 3.263 0 0 1-4.614 4.614l-4.344-4.344-18.368 1.387.357.357a3.263 3.263 0 1 1-4.615 4.614l-4.322-4.323-28.398 2.146-6.368-6.368 51.86-14.948 14.872-12.039c-13.314-15.905-34.239-39.95-34.239-39.95l-28.14 3.314-4.289-4.289 20.276-12.477c-2.21-2.47-1.429-4.55-1.429-4.55-3.9-3.899-2.21-7.408-2.21-7.408s3.51-1.69 7.408 2.209c0 0 2.08-.78 4.55 1.43l12.477-20.276 4.29 4.289-3.315 28.14s24.045 20.925 39.95 34.238l12.04-14.872 14.946-51.86 6.37 6.369zm-156.319-65.736c-9.73-6.81-19.64-13.31-29.736-19.377-10.091-6.06-20.384-11.702-30.835-16.58-5.223-2.439-10.49-4.669-15.75-6.594-5.255-1.914-10.53-3.52-15.592-4.549-2.524-.508-4.99-.86-7.269-.99-2.268-.129-4.375-.034-5.95.294a9.005 9.005 0 0 0-1.864.605c-.417.235-.643.456-.7.596-.062.141.075.218.17.255.097.033.187.046.223.245.052.313-.046 1.381.113 2.935.06.611.161 1.296.285 2.013a155.288 155.288 0 0 0-20.943 43.742 194.55 194.55 0 0 1-5.153-13.952c-2.046-6.464-3.837-13.18-4.748-20.737-.437-3.787-.65-7.807-.298-12.219.197-2.22.512-4.517 1.141-6.959a33.752 33.752 0 0 1 2.801-7.485c2.503-5.088 7.177-9.882 12.305-12.497 2.547-1.325 5.118-2.198 7.576-2.77a38.73 38.73 0 0 1 6.967-.86c4.384-.12 8.275.406 11.912 1.143 3.631.751 6.996 1.757 10.216 2.89 6.422 2.281 12.3 5.048 17.94 8.032 5.628 2.994 11.005 6.215 16.221 9.59 10.427 6.752 20.252 14.07 29.733 21.711 9.477 7.645 18.598 15.62 27.45 23.835 17.691 16.441 34.316 33.832 50.061 51.882-18.07-15.719-36.817-30.567-56.276-44.199"/>
  </g>
  <path fill="none" d="M0 0h1083.733v1083.733H0z"/>
</svg>
