<svg xmlns="http://www.w3.org/2000/svg" xmlns:xlink="http://www.w3.org/1999/xlink" width="64" height="64" viewBox="0 0 1083.733 1083.733">
   <defs>
     <linearGradient xlink:href="#a" id="d" x1="0" x2="1" y1="0" y2="0" gradientTransform="matrix(0 167.94176 167.94176 0 250 267.258)" gradientUnits="userSpaceOnUse" spreadMethod="pad"/>
     <linearGradient id="a" x1="0" x2="1" y1="0" y2="0" gradientTransform="matrix(0 167.94176 167.94176 0 250 267.258)" gradientUnits="userSpaceOnUse" spreadMethod="pad">
       <stop offset="0" stop-color="#ff5e57"/>
       <stop offset=".622" stop-color="#ffbd4a"/>
       <stop offset="1" stop-color="#ffbd4a"/>
     </linearGradient>
     <linearGradient xlink:href="#b" id="e" x1="0" x2="1" y1="0" y2="0" gradientTransform="matrix(311.00842 0 0 -311.00842 94.496 201.263)" gradientUnits="userSpaceOnUse" spreadMethod="pad"/>
     <linearGradient id="b" x1="0" x2="1" y1="0" y2="0" gradientTransform="matrix(311.00842 0 0 -311.00842 94.496 201.263)" gradientUnits="userSpaceOnUse" spreadMethod="pad">
       <stop offset="0" stop-color="#3784de"/>
       <stop offset="1" stop-color="#7bd2fd"/>
     </linearGradient>
     <clipPath id="c" clipPathUnits="userSpaceOnUse">
       <path d="M0 500h500V0H0Z"/>
     </clipPath>
     <clipPath id="f" clipPathUnits="userSpaceOnUse">
       <path d="M0 500h500V0H0Z"/>
     </clipPath>
   </defs>
   <g fill="#6af5ff" clip-path="url(#c)" transform="matrix(3.36176 0 0 -3.36176 -298.487 1479.87)">
     <path d="M405.958 279.242c0-86.133-69.824-155.958-155.958-155.958-86.133 0-155.958 69.825-155.958 155.958S163.867 435.2 250 435.2c86.134 0 155.958-69.825 155.958-155.958"/>
   </g>
   <path fill="url(#d)" d="M94.042 279.242c0-4.032.154-8.029.453-11.983 34.068 7.238 91.005 11.983 155.505 11.983s121.437-4.745 155.505-11.983c.3 3.954.453 7.951.453 11.983 0 86.133-69.824 155.957-155.958 155.957-86.133 0-155.958-69.824-155.958-155.957" transform="matrix(3.36176 0 0 -3.36176 -298.487 1479.87)"/>
   <path fill="url(#e)" d="m94.495 267.259 169.289-1.013-159.109-11.028 31.508-6.301-37.874-6.012a154.73 154.73 0 0 1 7.574-23.353l66.532 2.584-27.569-5.513 137.842-2.364-170.844-7.427a156.265 156.265 0 0 1 20.012-29.392l70.49-2.564-60.427-8.057c3.611-3.472 7.39-6.77 11.321-9.885l41.229-2.537-31.771-4.399c24.913-16.861 54.955-26.714 87.302-26.714 30.706 0 59.337 8.876 83.473 24.199l-56.298 5.339h64.154a156.49 156.49 0 0 1 14.646 12.004l-78.8 7.688 92.185 6.356a157.644 157.644 0 0 1 2.595 3.168l-110.534 9.379 120.742 5.005a154.67 154.67 0 0 1 3.509 5.871l-39.183 6.453 33.081 2.363-24.416 2.363 28.356 5.514-127.602 14.965h143.366a154.51 154.51 0 0 1 3.73 14.938l-49.426 11.055h51.195c.299 2.422.545 4.86.732 7.315-34.068 7.238-91.005 11.983-155.505 11.983s-121.437-4.745-155.505-11.983" transform="matrix(3.36176 0 0 -3.36176 -298.487 1479.87)"/>
   <g clip-path="url(#f)" transform="matrix(3.36176 0 0 -3.36176 -298.487 1479.87)">
     <path fill="#0e203b" d="M326.735 276.855c-12.172 4.226-37.868 12.581-47.197 11.248-12.407-1.772-17.723-2.954-28.357-1.18-10.633 1.771-15.95 2.953-23.63 4.134-7.679 1.181-6.498 5.317-17.131 5.317-10.634 0-23.63-.59-23.63-.59l-21.858-2.955s-2.954 4.135-7.68 4.726c-4.725.591-7.68 5.317-14.178 5.908-6.498.59-10.043.59-12.996-.59-2.954-1.183-8.271-1.773-11.815-1.773-3.545 0-5.317 1.772-8.271 1.772-2.953 0-3.544 1.181-7.679 1.181-1.364 0-3.756-.128-6.348-.3a157.036 157.036 0 0 1-1.923-24.51c0-4.033.153-8.03.454-11.985 34.067 7.24 91.004 11.984 155.504 11.984 27.328 0 53.287-.855 76.735-2.387"/>
     <path fill="#4392e3" d="M250 279.242c-17.487 0-34.41-.351-50.479-1.004l78.835-5.297-39.777-1.575 82.311-3.545-93.732-8.664 71.677-5.12-65.376-3.94 138.235-4.724-75.615 14.572 36.232 1.575-12.209 2.757 52.773 2.757-42.927 5.907 29.575 1.164c-30.889 3.233-68.686 5.137-109.523 5.137M210.223 234.739l120.907-15.753-118.544 11.421 96.489-14.966-20.873-3.15 49.623-3.939-124.451-7.483 64.194 7.09h-12.996l23.236 7.482-61.438 7.089 13.39.788-76.797 10.633 42.14-2.362-17.722 4.332z"/>
     <path fill="#fff" d="m384.72 297.757 4.321 4.323a3.263 3.263 0 0 1-4.614 4.614l-.356-.357-1.388 18.368 4.344 4.344a3.264 3.264 0 0 1-4.615 4.615l-.378-.379-1.643 21.751c11.92 11.244 21.364 20.196 23.5 22.331 8.448 8.449 5.784 21.251 4.484 22.551-1.3 1.3-14.102 3.964-22.55-4.484-2.136-2.136-11.087-11.581-22.333-23.5l-21.75 1.643.378.379a3.263 3.263 0 0 1-4.614 4.614l-4.344-4.344-18.368 1.387.357.357a3.263 3.263 0 1 1-4.615 4.614l-4.322-4.323-28.398 2.146-6.368-6.368 51.86-14.948 14.872-12.039c-13.314-15.905-34.239-39.95-34.239-39.95l-28.14 3.314-4.289-4.289 20.276-12.477c-2.21-2.47-1.429-4.55-1.429-4.55-3.9-3.899-2.21-7.408-2.21-7.408s3.51-1.69 7.408 2.209c0 0 2.08-.78 4.55 1.43l12.477-20.276 4.29 4.289-3.315 28.14s24.045 20.925 39.95 34.238l12.04-14.872 14.946-51.86 6.37 6.369zM228.401 232.021c-9.73-6.81-19.64-13.31-29.736-19.377-10.091-6.06-20.384-11.702-30.835-16.58-5.223-2.439-10.49-4.669-15.75-6.594-5.255-1.914-10.53-3.52-15.592-4.549-2.524-.508-4.99-.86-7.269-.99-2.268-.129-4.375-.034-5.95.294a9.005 9.005 0 0 0-1.864.605c-.417.235-.643.456-.7.596-.062.141.075.218.17.255.097.033.187.046.223.245.052.313-.046 1.381.113 2.935.06.611.161 1.296.285 2.013a155.288 155.288 0 0 0-20.943 43.742 194.55 194.55 0 0 1-5.153-13.952c-2.046-6.464-3.837-13.18-4.748-20.737-.437-3.787-.65-7.807-.298-12.219.197-2.22.512-4.517 1.141-6.959a33.752 33.752 0 0 1 2.801-7.485c2.503-5.088 7.177-9.882 12.305-12.497 2.547-1.325 5.118-2.198 7.576-2.77a38.73 38.73 0 0 1 6.967-.86c4.384-.12 8.275.406 11.912 1.143 3.631.751 6.996 1.757 10.216 2.89 6.422 2.281 12.3 5.048 17.94 8.032 5.628 2.994 11.005 6.215 16.221 9.59 10.427 6.752 20.252 14.07 29.733 21.711 9.477 7.645 18.598 15.62 27.45 23.835 17.691 16.441 34.316 33.832 50.061 51.882-18.07-15.719-36.817-30.567-56.276-44.199"/>
   </g>
   <path fill="none" d="M0 0h1083.733v1083.733H0z"/>
 </svg>
