<?xml version="1.0" encoding="UTF-8" standalone="no"?>
<!-- Created with Inkscape (http://www.inkscape.org/) -->

<svg
   width="3840"
   height="2160"
   viewBox="0 0 1016 571.50002"
   version="1.1"
   id="svg5"
   inkscape:version="1.1.2 (b8e25be833, 2022-02-05)"
   sodipodi:docname="dessin.svg"
   xmlns:inkscape="http://www.inkscape.org/namespaces/inkscape"
   xmlns:sodipodi="http://sodipodi.sourceforge.net/DTD/sodipodi-0.dtd"
   xmlns:xlink="http://www.w3.org/1999/xlink"
   xmlns="http://www.w3.org/2000/svg"
   xmlns:svg="http://www.w3.org/2000/svg">
  <sodipodi:namedview
     id="namedview7"
     pagecolor="#505050"
     bordercolor="#eeeeee"
     borderopacity="1"
     inkscape:pageshadow="0"
     inkscape:pageopacity="0"
     inkscape:pagecheckerboard="0"
     inkscape:document-units="mm"
     showgrid="false"
     units="px"
     height="2160px"
     inkscape:snap-nodes="false"
     inkscape:zoom="0.25"
     inkscape:cx="1956"
     inkscape:cy="1032"
     inkscape:window-width="2560"
     inkscape:window-height="1417"
     inkscape:window-x="-8"
     inkscape:window-y="-8"
     inkscape:window-maximized="1"
     inkscape:current-layer="layer1" />
  <defs
     id="defs2">
    <clipPath
       clipPathUnits="userSpaceOnUse"
       id="clipPath940">
      <path
         d="M 0,500 H 500 V 0 H 0 Z"
         id="path938" />
    </clipPath>
    <linearGradient
       inkscape:collect="always"
       xlink:href="#linearGradient988"
       id="linearGradient32006"
       gradientUnits="userSpaceOnUse"
       gradientTransform="matrix(0,167.94176,167.94176,0,250.00002,267.2583)"
       x1="0"
       y1="0"
       x2="1"
       y2="0"
       spreadMethod="pad" />
    <linearGradient
       x1="0"
       y1="0"
       x2="1"
       y2="0"
       gradientUnits="userSpaceOnUse"
       gradientTransform="matrix(0,167.94176,167.94176,0,250.00002,267.2583)"
       spreadMethod="pad"
       id="linearGradient988">
      <stop
         style="stop-opacity:1;stop-color:#ff5e57"
         offset="0"
         id="stop982" />
      <stop
         style="stop-opacity:1;stop-color:#ffbd4a"
         offset="0.622446"
         id="stop984" />
      <stop
         style="stop-opacity:1;stop-color:#ffbd4a"
         offset="1"
         id="stop986" />
    </linearGradient>
    <linearGradient
       inkscape:collect="always"
       xlink:href="#linearGradient1008"
       id="linearGradient32004"
       gradientUnits="userSpaceOnUse"
       gradientTransform="matrix(311.00842,0,0,-311.00842,94.495812,201.26314)"
       x1="0"
       y1="0"
       x2="1"
       y2="0"
       spreadMethod="pad" />
    <linearGradient
       x1="0"
       y1="0"
       x2="1"
       y2="0"
       gradientUnits="userSpaceOnUse"
       gradientTransform="matrix(311.00842,0,0,-311.00842,94.495812,201.26314)"
       spreadMethod="pad"
       id="linearGradient1008">
      <stop
         style="stop-opacity:1;stop-color:#3784de"
         offset="0"
         id="stop1004" />
      <stop
         style="stop-opacity:1;stop-color:#7bd2fd"
         offset="1"
         id="stop1006" />
    </linearGradient>
    <clipPath
       clipPathUnits="userSpaceOnUse"
       id="clipPath1018">
      <path
         d="M 0,500 H 500 V 0 H 0 Z"
         id="path1016" />
    </clipPath>
  </defs>
  <g
     inkscape:label="Calque 1"
     inkscape:groupmode="layer"
     id="layer1">
    <rect
       style="fill:#0e203b;fill-opacity:1;stroke-width:1.92028;stroke-linecap:round"
       id="rect943"
       width="1016"
       height="571.5"
       x="0.0014270996"
       y="0.0012301549" />
    <g
       id="g16155"
       transform="translate(0,1.4967014)">
      <g
         id="g31960"
         transform="matrix(1.0529502,0,0,-1.0529502,-48.65061,579.54608)"
         style="fill:#6af5ff;fill-opacity:1"
         inkscape:export-filename="C:\Users\tonyt\Downloads\g31960.png"
         inkscape:export-xdpi="100"
         inkscape:export-ydpi="100">
        <g
           id="g31958"
           clip-path="url(#clipPath940)"
           style="fill:#6af5ff;fill-opacity:1">
          <g
             id="g31956"
             transform="translate(405.9576,279.2419)"
             style="fill:#6af5ff;fill-opacity:1">
            <path
               d="m 0,0 c 0,-86.133 -69.824,-155.958 -155.958,-155.958 -86.133,0 -155.958,69.825 -155.958,155.958 0,86.133 69.825,155.958 155.958,155.958 C -69.824,155.958 0,86.133 0,0"
               style="fill:#6af5ff;fill-opacity:1;fill-rule:nonzero;stroke:none"
               id="path31954" />
          </g>
        </g>
      </g>
      <g
         id="g31970"
         transform="matrix(1.0529502,0,0,-1.0529502,-48.65061,579.54608)"
         inkscape:export-filename="C:\Users\tonyt\Downloads\g31960.png"
         inkscape:export-xdpi="100"
         inkscape:export-ydpi="100">
        <g
           id="g31968">
          <g
             id="g31966">
            <g
               id="g31964">
              <path
                 d="m 94.042,279.242 c 0,-4.032 0.154,-8.029 0.453,-11.983 v 0 c 34.068,7.238 91.005,11.983 155.505,11.983 v 0 c 64.5,0 121.437,-4.745 155.505,-11.983 v 0 c 0.3,3.954 0.453,7.951 0.453,11.983 v 0 c 0,86.133 -69.824,155.957 -155.958,155.957 v 0 c -86.133,0 -155.958,-69.824 -155.958,-155.957"
                 style="fill:url(#linearGradient32006);stroke:none"
                 id="path31962" />
            </g>
          </g>
        </g>
      </g>
      <g
         id="g31980"
         transform="matrix(1.0529502,0,0,-1.0529502,-48.65061,579.54608)"
         inkscape:export-filename="C:\Users\tonyt\Downloads\g31960.png"
         inkscape:export-xdpi="100"
         inkscape:export-ydpi="100">
        <g
           id="g31978">
          <g
             id="g31976">
            <g
               id="g31974">
              <path
                 d="m 94.495,267.259 169.289,-1.013 -159.109,-11.028 31.508,-6.301 -37.874,-6.012 c 1.92,-8.044 4.461,-15.846 7.574,-23.353 v 0 l 66.532,2.584 -27.569,-5.513 137.842,-2.364 -170.844,-7.427 c 5.552,-10.572 12.28,-20.426 20.012,-29.392 v 0 l 70.49,-2.564 -60.427,-8.057 c 3.611,-3.472 7.39,-6.77 11.321,-9.885 v 0 l 41.229,-2.537 -31.771,-4.399 C 187.611,133.137 217.653,123.284 250,123.284 v 0 c 30.706,0 59.337,8.876 83.473,24.199 v 0 l -56.298,5.339 h 64.154 c 5.125,3.708 10.017,7.714 14.646,12.004 v 0 l -78.8,7.688 92.185,6.356 c 0.879,1.044 1.743,2.101 2.595,3.168 v 0 l -110.534,9.379 120.742,5.005 c 1.211,1.929 2.382,3.886 3.509,5.871 v 0 l -39.183,6.453 33.081,2.363 -24.416,2.363 28.356,5.514 -127.602,14.965 h 143.366 c 1.48,4.883 2.73,9.865 3.73,14.938 v 0 l -49.426,11.055 h 51.195 c 0.299,2.422 0.545,4.86 0.732,7.315 v 0 C 371.437,274.497 314.5,279.242 250,279.242 v 0 c -64.5,0 -121.437,-4.745 -155.505,-11.983"
                 style="fill:url(#linearGradient32004);stroke:none"
                 id="path31972" />
            </g>
          </g>
        </g>
      </g>
      <g
         id="g32002"
         clip-path="url(#clipPath1018)"
         transform="matrix(1.0529883,0,0,-1.0529502,-48.666215,579.54608)"
         inkscape:export-filename="C:\Users\tonyt\Downloads\g31960.png"
         inkscape:export-xdpi="100"
         inkscape:export-ydpi="100">
        <g
           id="g31984"
           transform="matrix(1.0006749,0,0,1,326.735,276.8552)"
           style="fill:#0e203b;fill-opacity:1">
          <path
             d="M 0,0 C -12.172,4.226 -37.868,12.581 -47.197,11.248 -59.604,9.476 -64.92,8.294 -75.554,10.067 c -10.633,1.772 -15.95,2.954 -23.63,4.135 -7.679,1.181 -6.498,5.317 -17.131,5.317 -10.634,0 -23.63,-0.591 -23.63,-0.591 l -21.858,-2.954 c 0,0 -2.954,4.135 -7.68,4.726 -4.725,0.591 -7.68,5.317 -14.178,5.908 -6.498,0.59 -10.043,0.59 -12.996,-0.591 -2.954,-1.182 -8.271,-1.772 -11.815,-1.772 -3.545,0 -5.317,1.772 -8.271,1.772 -2.953,0 -3.544,1.181 -7.679,1.181 -1.364,0 -3.756,-0.128 -6.348,-0.301 -1.261,-7.985 -1.923,-16.17 -1.923,-24.51 0,-4.032 0.153,-8.029 0.454,-11.984 34.067,7.239 91.004,11.984 155.504,11.984 C -49.407,2.387 -23.448,1.532 0,0"
             style="fill:#0e203b;fill-opacity:1;fill-rule:nonzero;stroke:none"
             id="path31982" />
        </g>
        <g
           id="g31988"
           transform="translate(250.0001,279.2419)">
          <path
             d="m 0,0 c -17.487,0 -34.41,-0.351 -50.479,-1.004 l 78.835,-5.297 -39.777,-1.575 82.311,-3.545 -93.732,-8.664 71.677,-5.12 -65.376,-3.939 138.235,-4.725 -75.615,14.572 36.232,1.575 -12.209,2.757 52.773,2.757 -42.927,5.907 29.575,1.164 C 78.634,-1.904 40.837,0 0,0"
             style="fill:#4392e3;fill-opacity:1;fill-rule:nonzero;stroke:none"
             id="path31986" />
        </g>
        <g
           id="g31992"
           transform="translate(210.2228,234.739)">
          <path
             d="M 0,0 120.907,-15.753 2.363,-4.332 98.852,-19.298 77.979,-22.448 127.602,-26.387 3.151,-33.87 67.345,-26.78 H 54.349 l 23.236,7.482 -61.438,7.089 13.391,0.788 -76.798,10.633 42.14,-2.362 -17.722,4.332 z"
             style="fill:#4392e3;fill-opacity:1;fill-rule:nonzero;stroke:none"
             id="path31990" />
        </g>
        <g
           id="g31996"
           transform="translate(384.7194,297.757)"
           style="fill:#ffffff">
          <path
             d="m 0,0 4.322,4.323 c 1.275,1.274 1.275,3.34 0,4.614 -1.274,1.274 -3.34,1.274 -4.614,0 L -0.648,8.58 -2.036,26.948 2.308,31.292 c 1.274,1.274 1.274,3.34 0,4.615 -1.275,1.274 -3.34,1.274 -4.615,0 l -0.378,-0.379 -1.643,21.751 c 11.919,11.244 21.364,20.196 23.5,22.331 8.448,8.449 5.784,21.251 4.484,22.551 -1.3,1.3 -14.102,3.964 -22.551,-4.484 -2.135,-2.136 -11.086,-11.581 -22.332,-23.5 l -21.75,1.643 0.378,0.379 c 1.275,1.274 1.275,3.34 0,4.614 -1.273,1.274 -3.339,1.274 -4.614,0 l -4.344,-4.344 -18.368,1.387 0.357,0.357 c 1.274,1.274 1.274,3.34 0,4.614 -1.274,1.275 -3.34,1.275 -4.615,0 l -4.322,-4.323 -28.398,2.146 -6.368,-6.368 51.859,-14.948 14.873,-12.039 C -59.853,31.39 -80.778,7.345 -80.778,7.345 l -28.14,3.314 -4.289,-4.289 20.276,-12.477 c -2.21,-2.47 -1.429,-4.55 -1.429,-4.55 -3.9,-3.899 -2.21,-7.408 -2.21,-7.408 0,0 3.509,-1.69 7.408,2.209 0,0 2.08,-0.78 4.55,1.43 l 12.477,-20.276 4.289,4.289 -3.314,28.14 c 0,0 24.045,20.925 39.95,34.238 l 12.039,-14.872 14.947,-51.86 6.37,6.369 z"
             style="fill:#ffffff;fill-opacity:1;fill-rule:nonzero;stroke:none"
             id="path31994" />
        </g>
        <g
           id="g32000"
           transform="translate(228.4015,232.0212)"
           style="fill:#ffffff">
          <path
             d="m 0,0 c -9.73,-6.81 -19.641,-13.31 -29.736,-19.377 -10.092,-6.061 -20.385,-11.702 -30.836,-16.58 -5.222,-2.439 -10.489,-4.669 -15.75,-6.594 -5.254,-1.914 -10.529,-3.52 -15.591,-4.549 -2.524,-0.508 -4.99,-0.86 -7.269,-0.99 -2.268,-0.129 -4.375,-0.034 -5.951,0.294 -0.778,0.168 -1.405,0.393 -1.863,0.605 -0.417,0.235 -0.643,0.456 -0.701,0.596 -0.061,0.141 0.076,0.218 0.17,0.255 0.098,0.033 0.188,0.046 0.224,0.245 0.051,0.313 -0.047,1.381 0.112,2.935 0.06,0.611 0.162,1.296 0.286,2.013 -9.125,13.244 -16.241,27.971 -20.944,43.742 -1.86,-4.517 -3.592,-9.153 -5.152,-13.952 -2.046,-6.464 -3.837,-13.18 -4.748,-20.737 -0.437,-3.787 -0.65,-7.807 -0.298,-12.219 0.197,-2.221 0.512,-4.517 1.141,-6.959 0.586,-2.404 1.495,-4.961 2.801,-7.485 2.503,-5.088 7.177,-9.882 12.305,-12.497 2.547,-1.325 5.118,-2.198 7.576,-2.77 2.437,-0.531 4.766,-0.787 6.967,-0.861 4.384,-0.119 8.275,0.407 11.912,1.144 3.631,0.751 6.996,1.757 10.216,2.889 6.422,2.282 12.3,5.049 17.94,8.033 5.628,2.994 11.005,6.215 16.221,9.59 10.427,6.752 20.252,14.07 29.733,21.711 9.477,7.645 18.598,15.62 27.449,23.835 C 23.906,8.758 40.53,26.149 56.276,44.199 38.206,28.48 19.459,13.632 0,0"
             style="fill:#ffffff;fill-opacity:1;fill-rule:nonzero;stroke:none"
             id="path31998" />
        </g>
      </g>
      <rect
         style="fill:none;stroke:none;stroke-width:0.60393;stroke-linecap:round"
         id="rect976"
         width="339.44061"
         height="339.44061"
         x="44.839722"
         y="116.02976"
         inkscape:export-filename="C:\Users\tonyt\Downloads\g1163X.png"
         inkscape:export-xdpi="96"
         inkscape:export-ydpi="96" />
    </g>
    <g
       id="g16127"
       transform="translate(-1.0583333,-10.144899)">
      <text
         xml:space="preserve"
         style="font-size:79.6186px;line-height:1.25;font-family:Multicolore;-inkscape-font-specification:Multicolore;letter-spacing:0px;word-spacing:0px;fill:#ffffff;stroke-width:0.957537"
         x="496.3602"
         y="278.16235"
         id="text8206"><tspan
           sodipodi:role="line"
           style="font-style:normal;font-variant:normal;font-weight:300;font-stretch:normal;font-family:Montserrat-Alt1;-inkscape-font-specification:'Montserrat-Alt1 Light';fill:#ffffff;stroke-width:0.957537"
           x="496.3602"
           y="278.16235"
           id="tspan8318">HORIZON</tspan></text>
      <text
         xml:space="preserve"
         style="font-size:79.6186px;line-height:1.25;font-family:Multicolore;-inkscape-font-specification:Multicolore;letter-spacing:0px;word-spacing:0px;fill:#ffffff;stroke-width:0.957537"
         x="413.81015"
         y="372.354"
         id="text15306"><tspan
           sodipodi:role="line"
           style="font-style:normal;font-variant:normal;font-weight:300;font-stretch:normal;font-family:Montserrat-Alt1;-inkscape-font-specification:'Montserrat-Alt1 Light';fill:#ffffff;stroke-width:0.957537"
           x="413.81015"
           y="372.354"
           id="tspan15304">SIMULATIONS</tspan></text>
    </g>
  </g>
</svg>
