{
    "accessors": [
        {
            "bufferView": 1,
            "byteOffset": 28,
            "componentType": 5123,
            "count": 158,
            "type": "VEC4",
            "name": "x0_A320_CockpitDecals_2_vertices#0_COLOR_0"
        },
        {
            "bufferView": 1,
            "byteOffset": 16,
            "componentType": 5120,
            "count": 158,
            "type": "VEC4",
            "name": "x0_A320_CockpitDecals_2_vertices#0_NORMAL"
        },
        {
            "bufferView": 1,
            "componentType": 5126,
            "count": 158,
            "min": [
                -0.8534788489341736,
                0.9035357236862183,
                9.96680736541748
            ],
            "max": [
                0.8534785509109497,
                2.672769784927368,
                11.764981269836426
            ],
            "type": "VEC3",
            "name": "x0_A320_CockpitDecals_2_vertices#0_POSITION"
        },
        {
            "bufferView": 1,
            "byteOffset": 20,
            "componentType": 5122,
            "count": 158,
            "type": "VEC2",
            "name": "x0_A320_CockpitDecals_2_vertices#0_TEXCOORD_0"
        },
        {
            "bufferView": 1,
            "byteOffset": 24,
            "componentType": 5122,
            "count": 158,
            "type": "VEC2",
            "name": "x0_A320_CockpitDecals_2_vertices#0_TEXCOORD_1"
        },
        {
            "bufferView": 0,
            "componentType": 5123,
            "count": 408,
            "type": "SCALAR",
            "name": "x0_A320_CockpitDecals_2_indices#0"
        }
    ],
    "asset": {
        "generator": "Khronos glTF Blender I/O v1.7.5",
        "version": "2.0",
        "extensions": {
            "ASOBO_asset_optimized": {
                "BoundingBoxMax": [
                    0.8534785509109497,
                    2.672769784927368,
                    11.764981269836426
                ],
                "BoundingBoxMin": [
                    -0.8534788489341736,
                    0,
                    0
                ],
                "MajorVersion": 4,
                "MinorVersion": 2
            },
            "ASOBO_normal_map_convention": {
                "tangent_space_convention": "DirectX"
            }
        }
    },
    "bufferViews": [
        {
            "buffer": 0,
            "byteLength": 816,
            "byteOffset": 0,
            "target": 34963,
            "name": "BufferViewIndex"
        },
        {
            "buffer": 0,
            "byteLength": 5688,
            "byteStride": 36,
            "byteOffset": 816,
            "target": 34962,
            "name": "BufferViewVertexND"
        }
    ],
    "extensionsUsed": [
        "MSFT_texture_dds",
        "ASOBO_asset_optimized",
        "ASOBO_normal_map_convention"
    ],
    "extensionsRequired": [
        "MSFT_texture_dds"
    ],
    "materials": [
        {
            "name": "A320_CockpitDecals2",
            "alphaMode": "BLEND",
            "occlusionTexture": {
                "index": 0
            },
            "pbrMetallicRoughness": {
                "baseColorTexture": {
                    "index": 1
                },
                "metallicRoughnessTexture": {
                    "index": 0
                }
            },
            "extensions": {
                "ASOBO_material_draw_order": {
                    "drawOrderOffset": 5
                }
            }
        }
    ],
    "meshes": [
        {
            "primitives": [
                {
                    "attributes": {
                        "COLOR_0": 0,
                        "NORMAL": 1,
                        "POSITION": 2,
                        "TEXCOORD_0": 3,
                        "TEXCOORD_1": 4
                    },
                    "indices": 5,
                    "material": 0,
                    "mode": 4,
                    "extras": {
                        "ASOBO_primitive": {
                            "PrimitiveCount": 136,
                            "VertexType": "VTX",
                            "VertexVersion": 2
                        }
                    }
                }
            ],
            "name": "x0_A320_CockpitDecals_2"
        }
    ],
    "nodes": [
        {
            "mesh": 0,
            "name": "A320_CockpitDecals_2"
        }
    ],
    "scene": 0,
    "scenes": [
        {
            "name": "Scene",
            "nodes": [
                0
            ]
        }
    ],
    "textures": [
        {
            "extensions": {
                "MSFT_texture_dds": {
                    "source": 0
                }
            }
        },
        {
            "extensions": {
                "MSFT_texture_dds": {
                    "source": 1
                }
            }
        },
        {
            "extensions": {
                "MSFT_texture_dds": {
                    "source": 0
                }
            }
        }
    ],
    "buffers": [
        {
            "byteLength": 6504,
            "uri": "A320_CockpitDecals2.bin"
        }
    ],
    "images": [
        {
            "extras": "ASOBO_image_converted_meta",
            "uri": "A320_CockpitDecals2_COMP.png.DDS"
        },
        {
            "extras": "ASOBO_image_converted_meta",
            "uri": "A320_CockpitDecals2_ALBD.png.DDS"
        }
    ]
}
